<svg version="1.1" xmlns="http://www.w3.org/2000/svg" xmlns:xlink="http://www.w3.org/1999/xlink" width="112.91606" height="77.75681" viewBox="0,0,112.91606,77.75681"><g transform="translate(-185.17662,-145.56325)"><g data-paper-data="{&quot;isPaintingLayer&quot;:true}" fill-rule="nonzero" stroke-linecap="butt" stroke-linejoin="miter" stroke-miterlimit="10" stroke-dasharray="" stroke-dashoffset="0" style="mix-blend-mode: normal"><path d="M275.11293,214.69881c0,3.24594 -5.5958,5.8773 -12.49856,5.8773c-6.90277,0 -12.49856,-2.63136 -12.49856,-5.8773c0,-3.24594 5.5958,-5.8773 12.49856,-5.8773c6.90277,0 12.49856,2.63136 12.49856,5.8773z" fill="#66beff" stroke="#000000" stroke-width="4"/><path d="M233.15349,215.81475c0,3.0405 -4.92964,5.50531 -11.01065,5.50531c-6.08102,0 -11.01065,-2.46481 -11.01065,-5.50531c0,-3.0405 4.92964,-5.50531 11.01065,-5.50531c6.08102,0 11.01065,2.46481 11.01065,5.50531z" fill="#66beff" stroke="#000000" stroke-width="4"/><path d="M274.59424,180c0,17.91432 -15.48837,32.43675 -34.59424,32.43675c-19.10587,0 -34.59424,-14.52243 -34.59424,-32.43675c0,-17.91432 15.48837,-32.43675 34.59424,-32.43675c19.10587,0 34.59424,14.52243 34.59424,32.43675z" fill="#66beff" stroke="#000000" stroke-width="4"/><path d="M235.83172,174.00407c0,4.68402 -3.73053,8.48117 -8.33237,8.48117c-4.60184,0 -8.33237,-3.79715 -8.33237,-8.48117c0,-4.68402 3.73053,-8.48117 8.33237,-8.48117c4.60184,0 8.33237,3.79715 8.33237,8.48117z" fill="#ffffff" stroke="#000000" stroke-width="4"/><path d="M264.39988,174.45046c0,4.02662 -3.16429,7.29083 -7.06764,7.29083c-3.90335,0 -7.06764,-3.26422 -7.06764,-7.29083c0,-4.02662 3.16429,-7.29083 7.06764,-7.29083c3.90335,0 7.06764,3.26422 7.06764,7.29083z" fill="#ffffff" stroke="#000000" stroke-width="4"/><path d="M296.09268,183.15481c0,5.30034 -3.79715,9.59711 -8.48118,9.59711c-4.68403,0 -8.48118,-4.29677 -8.48118,-9.59711c0,-5.30034 3.79715,-9.59711 8.48118,-9.59711c4.68403,0 8.48118,4.29677 8.48118,9.59711z" fill="#66beff" stroke="#000000" stroke-width="4"/><path d="M187.17662,180.25335c0,4.35532 3.13098,7.886 6.99325,7.886c3.86226,0 6.99325,-3.53068 6.99325,-7.886c0,-4.35532 -3.13098,-7.886 -6.99325,-7.886c-3.86226,0 -6.99325,3.53068 -6.99325,7.886z" fill="#66beff" stroke="#000000" stroke-width="4"/><text transform="translate(221.84524,198.36346) scale(0.21997,0.21997)" font-size="40" xml:space="preserve" fill="#000000" fill-rule="nonzero" stroke="none" stroke-width="1" stroke-linecap="butt" stroke-linejoin="miter" stroke-miterlimit="10" stroke-dasharray="" stroke-dashoffset="0" font-family="Sans Serif" font-weight="normal" text-anchor="start" style="mix-blend-mode: normal"><tspan x="0" dy="0">Circle Ide</tspan></text></g></g></svg>