<svg version="1.1" xmlns="http://www.w3.org/2000/svg" xmlns:xlink="http://www.w3.org/1999/xlink" width="67.61593" height="216.75596" viewBox="0,0,67.61593,216.75596"><g transform="translate(-206.19203,-71.62201)"><g data-paper-data="{&quot;isPaintingLayer&quot;:true}" fill-rule="nonzero" stroke-miterlimit="10" stroke-dasharray="" stroke-dashoffset="0" style="mix-blend-mode: normal"><g data-paper-data="{&quot;index&quot;:null}" fill="#ffffff" stroke="#000000" stroke-width="2" stroke-linecap="round" stroke-linejoin="round"><path d="M256.27275,143.1932l6.92001,36.61121l-15.10364,2.95023l-6.94261,-36.77299"/><path d="M262.17208,174.26349l7.12882,37.77798l-15.11275,2.85979l-7.12411,-37.66842"/></g><path d="M261.43198,223.48829c-5.7487,-0.51105 -9.99466,-5.58559 -9.48361,-11.33429c0.51105,-5.74871 5.58558,-9.99466 11.33429,-9.48361c5.74871,0.51105 9.99466,5.58558 9.48361,11.33429c-0.51105,5.7487 -5.58558,9.99466 -11.33429,9.48361z" data-paper-data="{&quot;index&quot;:null}" fill="#ffffff" stroke="#000000" stroke-width="2" stroke-linecap="butt" stroke-linejoin="miter"/><path d="M227.58115,214.90179c-2.15274,0 -3.89787,-1.79086 -3.89787,-4v-6.71429c0,-2.20914 1.74514,-4 3.89787,-4h24.91854c2.15274,0 3.89788,1.79086 3.89788,4v6.71429c0,2.20914 -1.74514,4 -3.89788,4z" fill="#ffffff" stroke="#000000" stroke-width="2" stroke-linecap="butt" stroke-linejoin="miter"/><path d="M239.1059,144.87202c-1.7489,0 -3.16666,-1.79086 -3.16666,-4v-13.75c0,-2.20914 1.41777,-4 3.16666,-4h3.16667c1.7489,0 3.16666,1.79086 3.16666,4v13.75c0,2.20914 -1.41777,4 -3.16666,4z" fill="#ffffff" stroke="#000000" stroke-width="2" stroke-linecap="butt" stroke-linejoin="miter"/><path d="M211.43923,101.87202c0,-16.15433 13.09567,-29.25 29.25,-29.25c16.15433,0 29.25,13.09567 29.25,29.25c0,16.15433 -13.09567,29.25 -29.25,29.25c-16.15433,0 -29.25,-13.09567 -29.25,-29.25z" fill="#ffffff" stroke="#000000" stroke-width="2" stroke-linecap="butt" stroke-linejoin="miter"/><path d="M227.68923,206.37202c-2.20914,0 -4,-1.79086 -4,-4v-60.25c0,-2.20914 1.79086,-4 4,-4h24.75c2.20914,0 4,1.79086 4,4v60.25c0,2.20914 -1.79086,4 -4,4z" fill="#ffffff" stroke="#000000" stroke-width="2" stroke-linecap="butt" stroke-linejoin="miter"/><path d="M238.65072,211.77334l-1.22903,37.40244l-15.3773,-0.60236l1.23147,-37.2391" fill="#ffffff" stroke="#000000" stroke-width="2" stroke-linecap="round" stroke-linejoin="round"/><path d="M255.99089,211.33432l1.23147,37.2391l-15.3773,0.60236l-1.22903,-37.40244" data-paper-data="{&quot;index&quot;:null}" fill="#ffffff" stroke="#000000" stroke-width="2" stroke-linecap="round" stroke-linejoin="round"/><path d="M237.58901,243.56214l-1.27126,38.31509l-15.37243,-0.51157l1.25913,-38.42409" fill="#ffffff" stroke="#000000" stroke-width="2" stroke-linecap="round" stroke-linejoin="round"/><path d="M257.0623,242.94157l1.25913,38.42409l-15.37243,0.51157l-1.27126,-38.31509" data-paper-data="{&quot;index&quot;:null}" fill="#ffffff" stroke="#000000" stroke-width="2" stroke-linecap="round" stroke-linejoin="round"/><path d="M246.04314,287.37798c-1.61354,0 -2.92157,-1.30803 -2.92157,-2.92157v-6.26051c0,-1.61354 1.30803,-2.92157 2.92157,-2.92157h15.44258c1.61354,0 2.92157,1.30803 2.92157,2.92157v6.26051c0,1.61354 -1.30803,2.92157 -2.92157,2.92157z" fill="#ffffff" stroke="#000000" stroke-width="2" stroke-linecap="butt" stroke-linejoin="miter"/><g stroke-linejoin="miter"><path d="M234.85211,213.77191v-5.28571h10.14285v5.28571z" fill="#ffffff" stroke="none" stroke-width="0" stroke-linecap="butt"/><path d="M236.94302,213.2249h5.54546" fill="none" stroke="#000000" stroke-width="2" stroke-linecap="round"/></g><path d="M248.43939,100.71508c0,6.18559 -1.96994,11.2 -4.4,11.2c-2.43006,0 -4.4,-5.01441 -4.4,-11.2c0,-6.18559 1.96994,-11.2 4.4,-11.2c2.43006,0 4.4,5.01441 4.4,11.2z" fill="#000000" stroke="#000000" stroke-width="2" stroke-linecap="butt" stroke-linejoin="miter"/><path d="M264.03939,100.71508c0,6.18559 -1.96994,11.2 -4.4,11.2c-2.43006,0 -4.4,-5.01441 -4.4,-11.2c0,-6.18559 1.96994,-11.2 4.4,-11.2c2.43006,0 4.4,5.01441 4.4,11.2z" fill="#000000" stroke="#000000" stroke-width="2" stroke-linecap="butt" stroke-linejoin="miter"/><path d="M245.47007,121.51508h11" fill="none" stroke="#000000" stroke-width="2" stroke-linecap="round" stroke-linejoin="miter"/><g fill="#ffffff" stroke="#000000" stroke-width="2" stroke-linecap="round" stroke-linejoin="round"><path d="M238.8535,145.98164l-6.94261,36.77299l-15.10364,-2.95023l6.92001,-36.61121"/><path d="M232.93595,177.23284l-7.12411,37.66842l-15.11275,-2.85979l7.12882,-37.77798"/></g><path d="M207.23373,214.00467c-0.51105,-5.74871 3.7349,-10.82324 9.48361,-11.33429c5.74871,-0.51105 10.82324,3.7349 11.33429,9.48361c0.51105,5.7487 -3.73491,10.82324 -9.48361,11.33429c-5.74871,0.51105 -10.82324,-3.73491 -11.33429,-9.48361z" fill="#ffffff" stroke="#000000" stroke-width="2" stroke-linecap="butt" stroke-linejoin="miter"/><path d="M224.58418,287.37798c-1.61354,0 -2.92157,-1.30803 -2.92157,-2.92157v-6.26051c0,-1.61354 1.30803,-2.92157 2.92157,-2.92157h15.44258c1.61354,0 2.92157,1.30803 2.92157,2.92157v6.26051c0,1.61354 -1.30803,2.92157 -2.92157,2.92157z" fill="#ffffff" stroke="#000000" stroke-width="2" stroke-linecap="butt" stroke-linejoin="miter"/></g></g></svg>