<svg version="1.1" xmlns="http://www.w3.org/2000/svg" xmlns:xlink="http://www.w3.org/1999/xlink" width="80.7" height="216.75596" viewBox="0,0,80.7,216.75596"><g transform="translate(-199.65,-71.62202)"><g data-paper-data="{&quot;isPaintingLayer&quot;:true}" fill-rule="nonzero" stroke-miterlimit="10" stroke-dasharray="" stroke-dashoffset="0" style="mix-blend-mode: normal"><g fill="#ffffff" stroke="#000000" stroke-width="2" stroke-linecap="round" stroke-linejoin="round"><path d="M238.16894,145.9161l-10.17156,36.01378l-14.78307,-4.27606l10.13472,-35.85463"/><path d="M229.50737,176.52055l-10.43163,36.88962l-14.80015,-4.18678l10.44603,-36.99833"/></g><g data-paper-data="{&quot;index&quot;:null}" fill="#ffffff" stroke="#000000" stroke-width="2" stroke-linecap="round" stroke-linejoin="round"><path d="M257.09549,141.7992l10.13472,35.85463l-14.78307,4.27606l-10.17157,-36.01378"/><path d="M265.72291,172.22506l10.44603,36.99833l-14.80015,4.18678l-10.43164,-36.88962"/></g><path d="M227.79192,214.9018c-2.15274,0 -3.89787,-1.79086 -3.89787,-4v-6.71429c0,-2.20914 1.74514,-4 3.89787,-4h24.91854c2.15274,0 3.89788,1.79086 3.89788,4v6.71429c0,2.20914 -1.74514,4 -3.89788,4z" fill="#ffffff" stroke="#000000" stroke-width="2" stroke-linecap="butt" stroke-linejoin="miter"/><path d="M239.31667,144.87203c-1.7489,0 -3.16666,-1.79086 -3.16666,-4v-13.75c0,-2.20914 1.41777,-4 3.16666,-4h3.16667c1.7489,0 3.16666,1.79086 3.16666,4v13.75c0,2.20914 -1.41777,4 -3.16666,4z" fill="#ffffff" stroke="#000000" stroke-width="2" stroke-linecap="butt" stroke-linejoin="miter"/><path d="M211.65,101.87203c0,-16.15433 13.09567,-29.25 29.25,-29.25c16.15433,0 29.25,13.09567 29.25,29.25c0,16.15433 -13.09567,29.25 -29.25,29.25c-16.15433,0 -29.25,-13.09567 -29.25,-29.25z" fill="#ffffff" stroke="#000000" stroke-width="2" stroke-linecap="butt" stroke-linejoin="miter"/><path d="M227.9,206.37203c-2.20914,0 -4,-1.79086 -4,-4v-60.25c0,-2.20914 1.79086,-4 4,-4h24.75c2.20914,0 4,1.79086 4,4v60.25c0,2.20914 -1.79086,4 -4,4z" fill="#ffffff" stroke="#000000" stroke-width="2" stroke-linecap="butt" stroke-linejoin="miter"/><path d="M239.2473,212.29562l-3.22489,37.28342l-15.32318,-1.42278l3.2186,-37.12018" fill="#ffffff" stroke="#000000" stroke-width="2" stroke-linecap="round" stroke-linejoin="round"/><path d="M256.27113,211.03609l3.21861,37.12018l-15.32318,1.42278l-3.22489,-37.28342" data-paper-data="{&quot;index&quot;:null}" fill="#ffffff" stroke="#000000" stroke-width="2" stroke-linecap="round" stroke-linejoin="round"/><path d="M236.48931,243.98234l-3.3158,38.19251l-15.32317,-1.33186l3.30951,-38.302" fill="#ffffff" stroke="#000000" stroke-width="2" stroke-linecap="round" stroke-linejoin="round"/><path d="M259.02912,242.54099l3.30951,38.302l-15.32317,1.33186l-3.3158,-38.19251" data-paper-data="{&quot;index&quot;:null}" fill="#ffffff" stroke="#000000" stroke-width="2" stroke-linecap="round" stroke-linejoin="round"/><path d="M215.52991,287.37799c-1.61354,0 -2.92157,-1.30803 -2.92157,-2.92157v-6.26051c0,-1.61354 1.30803,-2.92157 2.92157,-2.92157h15.44258c1.61354,0 2.92157,1.30803 2.92157,2.92157v6.26051c0,1.61354 -1.30803,2.92157 -2.92157,2.92157z" fill="#ffffff" stroke="#000000" stroke-width="2" stroke-linecap="butt" stroke-linejoin="miter"/><path d="M249.88315,287.37799c-1.61354,0 -2.92157,-1.30803 -2.92157,-2.92157v-6.26051c0,-1.61354 1.30803,-2.92157 2.92157,-2.92157h15.44258c1.61354,0 2.92157,1.30803 2.92157,2.92157v6.26051c0,1.61354 -1.30803,2.92157 -2.92157,2.92157z" data-paper-data="{&quot;index&quot;:null}" fill="#ffffff" stroke="#000000" stroke-width="2" stroke-linecap="butt" stroke-linejoin="miter"/><g stroke-linejoin="miter"><path d="M235.06288,213.77192v-5.28571h10.14285v5.28571z" fill="#ffffff" stroke="none" stroke-width="0" stroke-linecap="butt"/><path d="M237.15379,213.22491h5.54546" fill="none" stroke="#000000" stroke-width="2" stroke-linecap="round"/></g><path d="M200.65,210.87203c0,-5.77138 4.67862,-10.45 10.45,-10.45c5.77138,0 10.45,4.67862 10.45,10.45c0,5.77137 -4.67863,10.45 -10.45,10.45c-5.77138,0 -10.45,-4.67863 -10.45,-10.45z" fill="#ffffff" stroke="#000000" stroke-width="2" stroke-linecap="butt" stroke-linejoin="miter"/><path d="M258.45,210.87203c0,-5.77138 4.67863,-10.45 10.45,-10.45c5.77137,0 10.45,4.67862 10.45,10.45c0,5.77137 -4.67863,10.45 -10.45,10.45c-5.77137,0 -10.45,-4.67863 -10.45,-10.45z" fill="#ffffff" stroke="#000000" stroke-width="2" stroke-linecap="butt" stroke-linejoin="miter"/><path d="M237.54356,100.71509c0,6.18559 -1.96994,11.2 -4.4,11.2c-2.43006,0 -4.4,-5.01441 -4.4,-11.2c0,-6.18559 1.96994,-11.2 4.4,-11.2c2.43006,0 4.4,5.01441 4.4,11.2z" fill="#000000" stroke="#000000" stroke-width="2" stroke-linecap="butt" stroke-linejoin="miter"/><path d="M253.14356,100.71509c0,6.18559 -1.96994,11.2 -4.4,11.2c-2.43006,0 -4.4,-5.01441 -4.4,-11.2c0,-6.18559 1.96994,-11.2 4.4,-11.2c2.43006,0 4.4,5.01441 4.4,11.2z" fill="#000000" stroke="#000000" stroke-width="2" stroke-linecap="butt" stroke-linejoin="miter"/><path d="M235.84356,121.51509h11" fill="none" stroke="#000000" stroke-width="2" stroke-linecap="round" stroke-linejoin="miter"/></g></g></svg>