<svg version="1.1" xmlns="http://www.w3.org/2000/svg" xmlns:xlink="http://www.w3.org/1999/xlink" width="65.48014" height="101.1862" viewBox="0,0,65.48014,101.1862"><g transform="translate(-207.25993,-130.89119)"><g data-paper-data="{&quot;isPaintingLayer&quot;:true}" fill-rule="nonzero" stroke-linejoin="miter" stroke-miterlimit="10" stroke-dasharray="" stroke-dashoffset="0" style="mix-blend-mode: normal"><path d="M213.35049,209.22152c0,-4.69947 3.80967,-8.50914 8.50914,-8.50914c4.69947,0 8.50914,3.80967 8.50914,8.50914c0,4.69947 -3.80967,8.50914 -8.50914,8.50914c-4.69947,0 -8.50914,-3.80967 -8.50914,-8.50914z" fill="#33ff85" stroke="#29cc6a" stroke-width="2" stroke-linecap="butt"/><path d="M208.25993,180.00002c0,-17.52955 14.21052,-31.74007 31.74007,-31.74007c17.52956,0 31.74007,14.21052 31.74007,31.74007c0,17.52955 -14.21051,31.74007 -31.74007,31.74007c-17.52955,0 -31.74007,-14.21052 -31.74007,-31.74007z" fill="#33c2ff" stroke="#296acc" stroke-width="2" stroke-linecap="butt"/><path d="M237.52953,192.67077c-1.2902,11.0548 -10.84682,6.17146 -10.84682,6.17146" fill="none" stroke="#296acc" stroke-width="2" stroke-linecap="round"/><path d="M225.69342,226.89435c0,-5.57739 4.52137,-10.09876 10.09876,-10.09876c5.57739,0 10.09876,4.52137 10.09876,10.09876c0,5.57739 -20.19752,5.57739 -20.19752,0z" fill="#ff3333" stroke="#cc2929" stroke-width="2" stroke-linecap="butt"/><path d="M235.79218,226.89435c0,-5.57739 4.52137,-10.09876 10.09876,-10.09876c5.57739,0 10.09876,4.52137 10.09876,10.09876c0,5.57739 -20.19752,5.57739 -20.19752,0z" fill="#ff3333" stroke="#cc2929" stroke-width="2" stroke-linecap="butt"/><path d="M249.44421,209.22152c0,-4.69947 3.80968,-8.50914 8.50914,-8.50914c4.69947,0 8.50914,3.80967 8.50914,8.50914c0,4.69947 -3.80967,8.50914 -8.50914,8.50914c-4.69947,0 -8.50914,-3.80967 -8.50914,-8.50914z" fill="#33ff85" stroke="#29cc6a" stroke-width="2" stroke-linecap="butt"/><g fill="#3369ff" stroke="#2954cc" stroke-width="2" stroke-linecap="butt"><path d="M214.5268,153.39781v-5.61043h32.16642v5.61043z"/><path d="M219.20216,151.99521c0,-11.10314 9.00088,-20.10402 20.10402,-20.10402c11.10314,0 20.10401,9.00088 20.10401,20.10402c0,2.95351 -40.20803,2.60352 -40.20803,0z"/></g><g stroke-linecap="butt"><path d="M246.03868,175.51164c0,7.51432 -3.97713,13.60586 -8.88317,13.60586c-4.90604,0 -8.88317,-6.09155 -8.88317,-13.60586c0,-7.51432 3.97713,-13.60587 8.88317,-13.60587c4.90604,0 8.88317,6.09155 8.88317,13.60587z" data-paper-data="{&quot;index&quot;:null}" fill="#ffffff" stroke="#9966ff" stroke-width="2"/><path d="M238.3711,175.51164c0,3.56333 -1.67458,6.45199 -3.74028,6.45199c-2.0657,0 -3.74028,-2.88865 -3.74028,-6.45199c0,-3.56333 1.67458,-6.45199 3.74028,-6.45199c2.0657,0 3.74028,2.88866 3.74028,6.45199z" data-paper-data="{&quot;index&quot;:null}" fill="#296acc" stroke="none" stroke-width="0"/></g><g stroke-linecap="butt"><path d="M215.22063,161.90577c2.99527,0 5.42341,6.09155 5.42341,13.60587c0,7.51431 -2.42814,13.60586 -5.42341,13.60586c-2.99527,0 -5.42341,-6.09154 -5.42341,-13.60586c0,-7.51432 2.42814,-13.60587 5.42341,-13.60587z" fill="#ffffff" stroke="#9966ff" stroke-width="2"/><path d="M213.95681,169.05965c1.26116,0 2.28354,2.88866 2.28354,6.45199c0,3.56334 -1.02238,6.45199 -2.28354,6.45199c-1.26116,0 -2.28354,-2.88866 -2.28354,-6.45199c0,-3.56333 1.02238,-6.45199 2.28354,-6.45199z" fill="#296acc" stroke="none" stroke-width="0"/></g></g></g></svg>