<svg version="1.1" xmlns="http://www.w3.org/2000/svg" xmlns:xlink="http://www.w3.org/1999/xlink" width="90.08363" height="101.1862" viewBox="0,0,90.08363,101.1862"><g transform="translate(-194.95818,-130.89117)"><g data-paper-data="{&quot;isPaintingLayer&quot;:true}" fill-rule="nonzero" stroke-linejoin="miter" stroke-miterlimit="10" stroke-dasharray="" stroke-dashoffset="0" style="mix-blend-mode: normal"><path d="M208.25993,180.00001c0,-17.52955 14.21052,-31.74007 31.74007,-31.74007c17.52956,0 31.74007,14.21052 31.74007,31.74007c0,17.52955 -14.21051,31.74007 -31.74007,31.74007c-17.52955,0 -31.74007,-14.21052 -31.74007,-31.74007z" fill="#33c2ff" stroke="#296acc" stroke-width="2" stroke-linecap="butt"/><path d="M252.86469,192.48375c-1.2902,11.0548 -10.84682,6.17146 -10.84682,6.17146" fill="none" stroke="#296acc" stroke-width="2" stroke-linecap="round"/><path d="M218.21286,226.89434c0,-5.57739 4.52137,-10.09876 10.09876,-10.09876c5.57739,0 10.09876,4.52137 10.09876,10.09876c0,5.57739 -20.19752,5.57739 -20.19752,0z" fill="#ff3333" stroke="#cc2929" stroke-width="2" stroke-linecap="butt"/><path d="M241.58962,226.89434c0,-5.57739 4.52137,-10.09876 10.09876,-10.09876c5.57739,0 10.09876,4.52137 10.09876,10.09876c0,5.57739 -20.19752,5.57739 -20.19752,0z" fill="#ff3333" stroke="#cc2929" stroke-width="2" stroke-linecap="butt"/><path d="M195.95818,209.22151c0,-4.69947 3.80967,-8.50914 8.50914,-8.50914c4.69947,0 8.50914,3.80967 8.50914,8.50914c0,4.69947 -3.80967,8.50914 -8.50914,8.50914c-4.69947,0 -8.50914,-3.80967 -8.50914,-8.50914z" fill="#33ff85" stroke="#29cc6a" stroke-width="2" stroke-linecap="butt"/><path d="M267.02353,209.22151c0,-4.69947 3.80968,-8.50914 8.50914,-8.50914c4.69947,0 8.50914,3.80967 8.50914,8.50914c0,4.69947 -3.80967,8.50914 -8.50914,8.50914c-4.69947,0 -8.50914,-3.80967 -8.50914,-8.50914z" fill="#33ff85" stroke="#29cc6a" stroke-width="2" stroke-linecap="butt"/><g fill="#3369ff" stroke="#2954cc" stroke-width="2" stroke-linecap="butt"><path d="M209.85145,153.77183v-5.61043h32.16642v5.61043z"/><path d="M219.20216,151.9952c0,-11.10314 9.00088,-20.10402 20.10402,-20.10402c11.10314,0 20.10401,9.00088 20.10401,20.10402c0,2.95351 -40.20803,2.60352 -40.20803,0z"/></g><g stroke-linecap="butt"><path d="M261.2261,175.51163c0,7.51432 -3.97713,13.60586 -8.88317,13.60586c-4.90604,0 -8.88317,-6.09155 -8.88317,-13.60586c0,-7.51432 3.97713,-13.60587 8.88317,-13.60587c4.90604,0 8.88317,6.09155 8.88317,13.60587z" data-paper-data="{&quot;index&quot;:null}" fill="#ffffff" stroke="#9966ff" stroke-width="2"/><path d="M253.55852,175.51163c0,3.56333 -1.67458,6.45199 -3.74028,6.45199c-2.0657,0 -3.74028,-2.88865 -3.74028,-6.45199c0,-3.56333 1.67458,-6.45199 3.74028,-6.45199c2.0657,0 3.74028,2.88866 3.74028,6.45199z" data-paper-data="{&quot;index&quot;:null}" fill="#296acc" stroke="none" stroke-width="0"/></g><g stroke-linecap="butt"><path d="M227.65707,161.90576c4.90604,0 8.88317,6.09155 8.88317,13.60587c0,7.51431 -3.97713,13.60586 -8.88317,13.60586c-4.90604,0 -8.88317,-6.09154 -8.88317,-13.60586c0,-7.51432 3.97713,-13.60587 8.88317,-13.60587z" fill="#ffffff" stroke="#9966ff" stroke-width="2"/><path d="M230.18176,169.05964c2.0657,0 3.74028,2.88866 3.74028,6.45199c0,3.56334 -1.67458,6.45199 -3.74028,6.45199c-2.0657,0 -3.74028,-2.88866 -3.74028,-6.45199c0,-3.56333 1.67458,-6.45199 3.74028,-6.45199z" fill="#296acc" stroke="none" stroke-width="0"/></g></g></g></svg>