<svg version="1.1" xmlns="http://www.w3.org/2000/svg" xmlns:xlink="http://www.w3.org/1999/xlink" width="252.28743" height="271.96733" viewBox="0,0,252.28743,271.96733"><g transform="translate(-115.84325,-44.01445)"><g data-paper-data="{&quot;isPaintingLayer&quot;:true}" fill-rule="nonzero" stroke-linejoin="miter" stroke-miterlimit="10" stroke-dasharray="" stroke-dashoffset="0" style="mix-blend-mode: normal"><path d="M314.13826,99.01126c-11.06558,-13.17578 -27.62695,-47.29467 -27.62695,-47.29467c0,0 18.39284,-2.81014 37.02458,-2.43865c18.21675,0.36321 36.63852,3.85627 40.35125,8.31434c3.34649,4.01829 4.74399,25.8946 1.0527,42.11016c-4.01611,17.6425 -13.30864,29.55237 -13.30864,29.55237c0,0 -26.86997,-17.59477 -37.49295,-30.24355z" data-paper-data="{&quot;index&quot;:null}" fill="#ffdbf4" stroke="#000000" stroke-width="2" stroke-linecap="round"/><path d="M157.68016,224.19715c0,0 -35.8385,10.55179 -36.57733,-31.68284c-0.68917,-39.39539 27.60169,-104.89285 39.58758,-116.78434c16.56978,-16.43928 56.25927,-30.74028 89.26861,-30.71549c6.29949,0.00473 38.24635,0.06168 57.71403,14.0714c24.84495,17.87942 37.85254,51.88245 42.89507,66.25216c2.12593,6.05825 22.27576,48.21094 4.49959,82.03917c-12.38305,23.56506 -38.798,14.34587 -38.798,14.34587c0,0 7.62409,-9.20048 3.89607,-27.18926c-3.45744,-16.68314 -20.33152,-33.33824 -32.20044,-41.81392c-23.87506,-17.04936 -58.43806,-19.09871 -72.91063,-13.62731c-10.58813,4.00287 -27.89146,8.41077 -39.46217,19.56817c-14.26299,13.75351 -19.29326,33.0459 -19.95982,38.48407c-2.2796,18.59843 2.04743,27.05233 2.04743,27.05233z" fill="#ff548f" stroke="#000000" stroke-width="2" stroke-linecap="round"/><path d="M330.62291,214.63368c0,0 6.88917,-12.01084 3.54962,-27.68342c-5.35879,-25.14889 -29.81085,-58.4664 -96.87105,-57.24516c-59.39403,1.08164 -85.83335,29.65119 -93.16137,53.55157c-5.40907,17.64172 1.96137,32.64843 1.96137,32.64843c0,0 -6.69294,-2.45569 -10.60745,-10.43149c-2.43063,-4.9524 -3.17558,-13.26197 -2.44621,-20.70476c2.67753,-27.32263 30.0975,-65.2245 104.20331,-66.32764c79.60816,-1.18505 106.13443,41.59634 107.55774,69.66191c0.33263,6.55907 -0.90013,12.97409 -3.16508,16.98336c-4.21549,7.46197 -11.02089,9.5472 -11.02089,9.5472z" fill="#00dfde" stroke="none" stroke-width="0" stroke-linecap="round"/><path d="M310.97074,274.62138c0,0 -6.46497,10.17185 -17.11111,9.88889c-11.28861,-0.30004 -15,-7.66667 -15,-7.66667" fill="none" stroke="#000000" stroke-width="2" stroke-linecap="round"/><path d="M326.08186,260.39918l3.22222,7.33333l-18,6.44444l-7.77778,-16.33333l7.77778,-3.44444l4.44444,10z" fill="#e6d246" stroke="#000000" stroke-width="2" stroke-linecap="round"/><path d="M129.25148,135.81372c0,0 -8.50415,-11.70236 -11.37202,-29.30233c-2.63591,-16.17647 0.17256,-38.1733 3.77201,-42.29767c3.99338,-4.57575 22.60385,-8.58248 40.80746,-9.44197c18.61829,-0.87907 36.79254,1.44197 36.79254,1.44197c0,0 -18.73305,34.69759 -30.62789,48.22372c-11.41907,12.98512 -39.37211,31.37628 -39.37211,31.37628z" fill="#ffdbf4" stroke="#000000" stroke-width="2" stroke-linecap="round"/><path d="M269.95457,212.46271c0,0 44.74426,48.40323 24.84115,63.62728c-19.90311,15.22405 -41.06312,-51.21897 -41.06312,-51.21897z" fill="#ffdbf4" stroke="#000000" stroke-width="2" stroke-linecap="round"/><path d="M245.23464,226.75652c0,0 -29.04774,59.17051 -50.41666,46.08333c-21.36892,-13.08718 33,-56.75 33,-56.75z" fill="#ffdbf4" stroke="#000000" stroke-width="2" stroke-linecap="round"/><path d="M272.58691,215.61762c0,0 12.50828,29.12338 6.2989,46.65134c-4.76011,13.43695 -27.15481,16.38612 -34.57163,16.34866c-7.29997,-0.03687 -32.15087,-4.39393 -34.3756,-17.49881c-2.98413,-17.5782 18.10287,-45.22846 18.10287,-45.22846z" fill="#ffdbf4" stroke="#000000" stroke-width="2" stroke-linecap="round"/><path d="M244.59254,278.53515c0.79993,16.31631 -1.08793,36.56586 -15.41097,36.4461c-23.96767,-0.2004 -19.50376,-58.80909 -19.50376,-58.80909" fill="#ffdbf4" stroke="#000000" stroke-width="2" stroke-linecap="round"/><path d="M280.4765,247.44491c0,0 8.33618,67.73676 -15.62438,67.53636c-14.31816,-0.11975 -17.7677,-20.41818 -18.22528,-36.7361" fill="#ffdbf4" stroke="#000000" stroke-width="2" stroke-linecap="round"/><path d="M335.09062,167.5103c-0.20403,40.3074 -43.03836,52.11779 -94.94088,52.11779c-51.90252,0 -85.44122,-8.15607 -91.89122,-47.94456c-9.63052,-59.40844 40.30971,-98.6653 92.21224,-98.6653c51.90252,0 94.94088,31.07093 94.61987,94.49208z" fill="#ffdbf4" stroke="#000000" stroke-width="2" stroke-linecap="butt"/><path d="M254.88467,276.90612c-0.05861,0.01126 -3.691,1.44192 -10.34831,1.32632c-6.22242,-0.10805 -9.29359,-1.29828 -9.36152,-1.31167" fill="none" stroke="#000000" stroke-width="2" stroke-linecap="round"/><path d="M198.82105,202.27244c-17.23607,0.70795 -26.17202,-10.67552 -26.78339,-11.62553c-4.02685,-6.25728 -4.36823,-13.89429 -4.41895,-17.20757c-0.02024,-1.32208 -0.34624,-13.63936 5.95801,-22.45497c3.29342,-4.60538 11.33143,-11.93459 25.64376,-11.27487c5.38145,0.24806 15.43132,3.36397 19.92324,11.20887c6.44572,11.25711 6.09581,29.18028 3.45152,36.33121c-3.71109,10.03587 -15.31069,14.67522 -23.77417,15.02285z" fill="#ffffff" stroke="#000000" stroke-width="2" stroke-linecap="round"/><path d="M288.70024,201.87244c-17.23607,0.70795 -26.17202,-10.67552 -26.78339,-11.62553c-4.02685,-6.25728 -4.36823,-13.89429 -4.41895,-17.20757c-0.02024,-1.32208 -0.34624,-13.63936 5.95801,-22.45497c3.29342,-4.60538 11.33143,-11.93459 25.64376,-11.27487c5.38145,0.24806 15.43132,3.36397 19.92324,11.20887c6.44572,11.25711 6.09581,29.18028 3.45152,36.33121c-3.71109,10.03587 -15.31069,14.67522 -23.77417,15.02285z" fill="#ffffff" stroke="#000000" stroke-width="2" stroke-linecap="round"/><path d="M333.93129,137.51952c0,0 -59.17411,5.76419 -89.61295,2.37988c-69.10406,-7.68325 -86.04107,-17.71261 -86.04107,-17.71261c0,0 -8.51985,12.12965 -11.73948,21.14302c-5.37788,15.05541 -6.32279,25.33266 -6.32279,25.33266c0,0 -16.70459,-2.60679 -14.60635,-33.15583c1.30215,-18.95852 16.40877,-46.61918 24.41941,-55.38847c16.24083,-17.77893 43.73819,-27.62555 57.37855,-30.82999c34.62474,-8.13416 74.99974,-0.95807 74.99974,-0.95807" fill="#ff548f" stroke="#000000" stroke-width="2" stroke-linecap="round"/><path d="M167.4923,193.3089c8.36712,1.04244 15.15,6.43181 15.15,12.0375c0,5.60569 -6.78288,9.30494 -15.15,8.2625c-8.36712,-1.04244 -15.15,-6.43181 -15.15,-12.0375c0,-5.60569 6.78288,-9.30493 15.15,-8.2625z" data-paper-data="{&quot;index&quot;:null}" fill="#ffb1cb" stroke="#000000" stroke-width="0" stroke-linecap="butt"/><path d="M218.60963,171.6214c0,11.95696 -8.95431,21.65 -20,21.65c-11.04569,0 -20,-9.69304 -20,-21.65c0,-11.95696 8.95431,-21.65 20,-21.65c11.04569,0 20,9.69304 20,21.65z" fill="#00e1de" stroke="none" stroke-width="0" stroke-linecap="butt"/><path d="M304.37448,171.2214c0,11.95696 -8.9543,21.65 -20,21.65c-11.0457,0 -20,-9.69303 -20,-21.65c0,-11.95696 8.9543,-21.65 20,-21.65c11.0457,0 20,9.69304 20,21.65z" fill="#ff25dd" stroke="none" stroke-width="0" stroke-linecap="butt"/><path d="M351.85195,109.84422c1.56314,17.37281 -8.02517,32.26565 -22.83101,33.59782c-14.80585,1.33218 -28.07555,-11.67133 -29.63869,-29.04415c-1.56314,-17.37281 9.1722,-32.5362 23.97805,-33.86837c14.80585,-1.33218 26.92851,11.94188 28.49165,29.31469z" fill="#00e1de" stroke="#000000" stroke-width="2" stroke-linecap="butt"/><path d="M351.85195,109.84422c0.22588,2.51044 -19.63809,31.41298 -19.63809,31.41298c0,0 -32.59298,-24.20705 -32.83162,-26.85929c-0.81058,-9.00881 1.68593,-17.42351 6.34221,-23.62351c0.40194,-0.53519 22.65745,16.9856 22.65745,16.9856c0,0 13.14347,-20.6542 13.84863,-19.93963c5.2647,5.33502 8.82243,13.14402 9.6214,22.02387z" fill="#ffe84b" stroke="#000000" stroke-width="2" stroke-linecap="butt"/><path d="M283.67535,104.95305c0,0 7.83742,-1.72041 14.66221,0.49203c7.20783,2.33661 9.0584,8.05436 9.0584,8.05436" fill="none" stroke="#000000" stroke-width="2" stroke-linecap="round"/><path d="M250.65565,206.06794c0,0 -4.27465,6.28389 -6.68245,6.37861c-2.50557,0.09857 -8.06934,-5.7983 -8.06934,-5.7983" fill="none" stroke="#000000" stroke-width="2" stroke-linecap="round"/><path d="M217.32305,179.2777c-2.85695,8.17836 -10.15782,13.99369 -18.71342,13.99369c-8.50441,0 -15.76907,-5.74597 -18.66167,-13.84718c-0.44542,-1.24749 7.11445,-5.34852 19.35344,-5.47488c11.65374,-0.12031 18.42466,4.17469 18.02164,5.32837z" fill="#eff26d" stroke="none" stroke-width="0" stroke-linecap="butt"/><path d="M303.06285,178.87771c-2.85695,8.17836 -10.15782,13.99369 -18.71342,13.99369c-8.50441,0 -15.76907,-5.74597 -18.66167,-13.84718c-0.44542,-1.24749 7.11445,-5.34852 19.35344,-5.47488c11.65374,-0.12031 18.42466,4.17469 18.02164,5.32837z" fill="#00e1de" stroke="none" stroke-width="0" stroke-linecap="butt"/><path d="M304.37448,171.2214c0,11.95696 -8.9543,21.65 -20,21.65c-11.0457,0 -20,-9.69303 -20,-21.65c0,-11.95696 8.9543,-21.65 20,-21.65c11.0457,0 20,9.69304 20,21.65z" fill="none" stroke="#000000" stroke-width="2" stroke-linecap="butt"/><path d="M218.60963,171.6214c0,11.95696 -8.9543,21.65 -20,21.65c-11.0457,0 -20,-9.69303 -20,-21.65c0,-11.95696 8.9543,-21.65 20,-21.65c11.0457,0 20,9.69304 20,21.65z" fill="none" stroke="#000000" stroke-width="2" stroke-linecap="butt"/><path d="M197.25963,177.70511c0,-0.82843 0.67157,-1.5 1.5,-1.5c0.82843,0 1.5,0.67157 1.5,1.5c0,0.82843 -0.67157,1.5 -1.5,1.5c-0.82843,0 -1.5,-0.67157 -1.5,-1.5z" fill="#ffffff" stroke="none" stroke-width="0.5" stroke-linecap="butt"/><path d="M280.57446,180.00511l-5.2,4.6l-4.2,-3.4l-5.81894,4.48059" fill="none" stroke="#ffffff" stroke-width="3" stroke-linecap="round"/><path d="M282.57446,176.90511c0,-0.82843 0.67157,-1.5 1.5,-1.5c0.82843,0 1.5,0.67157 1.5,1.5c0,0.82843 -0.67157,1.5 -1.5,1.5c-0.82843,0 -1.5,-0.67157 -1.5,-1.5z" fill="#ffffff" stroke="none" stroke-width="0.5" stroke-linecap="butt"/><path d="M195.25963,180.80511l-5.2,4.6l-4.2,-3.4l-5.81894,4.48059" fill="none" stroke="#ffffff" stroke-width="3" stroke-linecap="round"/><path d="M159.60147,196.95511l-5.05,6.7" fill="none" stroke="#f899b6" stroke-width="0.5" stroke-linecap="round"/><path d="M158.45148,207.0468l8.05866,-10.69169" fill="none" stroke="#f899b6" stroke-width="0.5" stroke-linecap="round"/><path d="M179.5688,203.6468l-5.05,6.7" data-paper-data="{&quot;index&quot;:null}" fill="none" stroke="#f899b6" stroke-width="0.5" stroke-linecap="round"/><path d="M167.61014,210.9468l8.05866,-10.69169" data-paper-data="{&quot;index&quot;:null}" fill="none" stroke="#f899b6" stroke-width="0.5" stroke-linecap="round"/><path d="M172.00697,197.46914l-9.02933,11.97951" fill="none" stroke="#f899b6" stroke-width="0.5" stroke-linecap="round"/><path d="M310.74941,195.38041c8.21134,-1.91551 16.43952,0.79556 18.37815,6.05536c1.93864,5.2598 -3.14639,11.07653 -11.35773,12.99205c-8.21134,1.91551 -16.43952,-0.79556 -18.37815,-6.05536c-1.93864,-5.2598 3.14639,-11.07653 11.35773,-12.99205z" data-paper-data="{&quot;index&quot;:null}" fill="#ffb1cb" stroke="#000000" stroke-width="0" stroke-linecap="butt"/><path d="M302.18514,209.56359l2.42131,-8.03304" fill="none" stroke="#f899b6" stroke-width="0.5" stroke-linecap="round"/><path d="M310.88133,198.57832l-3.86387,12.81893" fill="none" stroke="#f899b6" stroke-width="0.5" stroke-linecap="round"/><path d="M325.65593,200.90396l-2.42131,8.03304" data-paper-data="{&quot;index&quot;:null}" fill="none" stroke="#f899b6" stroke-width="0.5" stroke-linecap="round"/><path d="M320.82362,199.0703l-3.86387,12.81893" data-paper-data="{&quot;index&quot;:null}" fill="none" stroke="#f899b6" stroke-width="0.5" stroke-linecap="round"/><path d="M312.09499,212.0856l4.32927,-14.36297" fill="none" stroke="#f899b6" stroke-width="0.5" stroke-linecap="round"/><path d="M150.85147,92.69082c24.60053,-34.10355 48.4,-40.4 48.4,-40.4c0,0 -16.73924,9.29346 -38.77664,42.21454c-20.23327,30.22594 -24.22336,58.98546 -24.22336,58.98546c0,0 -11.01533,-25.28964 14.6,-60.8z" fill="#00dfde" stroke="none" stroke-width="0" stroke-linecap="round"/><path d="M138.125,111.25c0,0 4.90465,-7.43752 13.51831,-12.9733c6.69134,-4.30035 16.73169,-7.7767 16.73169,-7.7767l5.25,8.25c0,0 7.8709,-4.89089 15.20514,-8.10602c7.94917,-3.4847 17.29486,-5.64398 17.29486,-5.64398" fill="none" stroke="#ffffff" stroke-width="5" stroke-linecap="round"/><path d="M211.875,83.25c0,-1.38071 1.11929,-2.5 2.5,-2.5c1.38071,0 2.5,1.11929 2.5,2.5c0,1.38071 -1.11929,2.5 -2.5,2.5c-1.38071,0 -2.5,-1.11929 -2.5,-2.5z" fill="#ffffff" stroke="none" stroke-width="0.5" stroke-linecap="butt"/></g></g></svg>